<svg width="64" height="62" xmlns="http://www.w3.org/2000/svg">

 <g>
  <title>background</title>
  <rect fill="#ffff07" id="canvas_background" height="64" width="66" y="-1" x="-1"/>
 </g>
 <g>
  <title>Layer 1</title>
  <path id="svg_1" d="m47.6,32.9c0,-8.6 -7,-15.6 -15.6,-15.6s-15.6,7 -15.6,15.6s7,15.6 15.6,15.6s15.6,-7.1 15.6,-15.6zm-15.6,10.5c-5.8,0 -10.6,-4.7 -10.6,-10.6s4.8,-10.5 10.6,-10.5s10.6,4.7 10.6,10.6s-4.8,10.5 -10.6,10.5zm0,-28.5c-1.4,0 -2.5,-1.1 -2.5,-2.5l0,-7.4c0,-1.4 1.1,-2.5 2.5,-2.5s2.5,1.1 2.5,2.5l0,7.4c0,1.4 -1.1,2.5 -2.5,2.5zm0,34.2c1.4,0 2.5,1.1 2.5,2.5l0,7.4c0,1.4 -1.1,2.5 -2.5,2.5s-2.5,-1.1 -2.5,-2.5l0,-7.4c0,-1.4 1.1,-2.5 2.5,-2.5zm19.6,-19.6l7.4,0c1.4,0 2.5,1.1 2.5,2.5s-1.1,2.5 -2.5,2.5l-7.4,0c-1.4,0 -2.5,-1.1 -2.5,-2.5s1.1,-2.5 2.5,-2.5zm-49.1,2.5c0,-1.4 1.1,-2.5 2.5,-2.5l7.4,0c1.4,0 2.5,1.1 2.5,2.5s-1.1,2.5 -2.5,2.5l-7.4,0c-1.4,0 -2.5,-1.1 -2.5,-2.5zm8.7,-17.3c-1,-1 -1,-2.6 0,-3.5c1,-1 2.6,-1 3.5,0l5.2,5.2c1,1 1,2.6 0,3.5c-0.5,0.5 -1.1,0.7 -1.8,0.7s-1.3,-0.2 -1.8,-0.7l-5.1,-5.2zm32.9,32.9c-1,-1 -1,-2.6 0,-3.5c1,-1 2.6,-1 3.5,0l5.2,5.2c1,1 1,2.6 0,3.5c-0.5,0.5 -1.1,0.7 -1.8,0.7s-1.3,-0.2 -1.8,-0.7l-5.1,-5.2zm0,-31.2l5.2,-5.2c1,-1 2.6,-1 3.5,0c1,1 1,2.6 0,3.5l-5.2,5.2c-0.5,0.5 -1.1,0.7 -1.8,0.7s-1.3,-0.2 -1.8,-0.7c-0.9,-1 -0.9,-2.5 0.1,-3.5zm-24.2,27.7c1,1 1,2.6 0,3.5l-5.2,5.2c-0.5,0.5 -1.1,0.7 -1.8,0.7s-1.3,-0.2 -1.8,-0.7c-1,-1 -1,-2.6 0,-3.5l5.2,-5.2c1.1,-1 2.6,-1 3.6,0z"/>
  <text id="svg_3" font-family="'Helvetica Neue', Helvetica, Arial-Unicode, Arial, Sans-serif" font-weight="bold" font-size="5px" fill="#000000" y="84" x="0">from the Noun Project</text>
 </g>
</svg>